<?xml version="1.0" encoding="utf-8"?>
<!-- Generator: Adobe Illustrator 27.7.0, SVG Export Plug-In . SVG Version: 6.00 Build 0)  -->
<svg version="1.1" id="poi" xmlns="http://www.w3.org/2000/svg" xmlns:xlink="http://www.w3.org/1999/xlink" x="0px" y="0px"
	 viewBox="0 0 16 16" style="enable-background:new 0 0 16 16;" xml:space="preserve">
<style type="text/css">
	.st0{fill:#EFEFEF;}
	.st1{opacity:0.65;fill:#FFFFFF;enable-background:new    ;}
	.st2{opacity:0.2;enable-background:new    ;}
	.st3{fill:#999999;}
	.st4{fill:#FFFFFF;}
	.st5{fill:#FF0099;}
</style>
<path class="st0" d="M2,0v16h12V4l-4-4H2z"/>
<path class="st1" d="M10,4V0l4,4H10z"/>
<path class="st2" d="M13,5v5L9,5H13z"/>
<path class="st3" d="M2,0v16h12V4l0,0l0,0l-4-4l0,0l0,0H2z M3,1h6v4h4v10H3V1z M10,1.4L12.6,4H10V1.4z"/>
<circle class="st4" cx="11.4" cy="8.6" r="2.4"/>
<path class="st5" d="M11.4,15.4c0,0,4.1-3.9,4.1-6.8c0-2.3-1.8-4.1-4.1-4.1s-4.1,1.8-4.1,4C7.3,11.5,11.4,15.4,11.4,15.4z
	 M11.4,10.6c-1.1,0-2-0.9-2-2s0.9-2,2-2s2,0.9,2,2S12.5,10.6,11.4,10.6z"/>
</svg>
